<mxfile host="app.diagrams.net" modified="2024-01-17T19:02:43.365Z" agent="Mozilla/5.0 (Windows NT 10.0; Win64; x64; rv:121.0) Gecko/20100101 Firefox/121.0" etag="ePSS8gjfz1m9C93a3p-Z" version="22.1.21" type="device">
  <diagram id="voFzMVgwOlCPSZddXBeR" name="Page-1">
    <mxGraphModel dx="1434" dy="754" grid="0" gridSize="10" guides="1" tooltips="1" connect="1" arrows="1" fold="1" page="1" pageScale="1" pageWidth="827" pageHeight="1169" math="0" shadow="0">
      <root>
        <mxCell id="0" />
        <mxCell id="1" parent="0" />
        <mxCell id="T1cV6wa7lcxZvdlWrsby-8" value="Continent" style="swimlane;fontStyle=0;childLayout=stackLayout;horizontal=1;startSize=26;fillColor=none;horizontalStack=0;resizeParent=1;resizeParentMax=0;resizeLast=0;collapsible=1;marginBottom=0;" parent="1" vertex="1">
          <mxGeometry x="58.5" y="112" width="140" height="78" as="geometry" />
        </mxCell>
        <mxCell id="T1cV6wa7lcxZvdlWrsby-10" value="continentId {PK}" style="text;strokeColor=none;fillColor=none;align=left;verticalAlign=top;spacingLeft=4;spacingRight=4;overflow=hidden;rotatable=0;points=[[0,0.5],[1,0.5]];portConstraint=eastwest;" parent="T1cV6wa7lcxZvdlWrsby-8" vertex="1">
          <mxGeometry y="26" width="140" height="26" as="geometry" />
        </mxCell>
        <mxCell id="T1cV6wa7lcxZvdlWrsby-11" value="name" style="text;strokeColor=none;fillColor=none;align=left;verticalAlign=top;spacingLeft=4;spacingRight=4;overflow=hidden;rotatable=0;points=[[0,0.5],[1,0.5]];portConstraint=eastwest;" parent="T1cV6wa7lcxZvdlWrsby-8" vertex="1">
          <mxGeometry y="52" width="140" height="26" as="geometry" />
        </mxCell>
        <mxCell id="T1cV6wa7lcxZvdlWrsby-15" value="User" style="swimlane;fontStyle=0;childLayout=stackLayout;horizontal=1;startSize=26;fillColor=none;horizontalStack=0;resizeParent=1;resizeParentMax=0;resizeLast=0;collapsible=1;marginBottom=0;" parent="1" vertex="1">
          <mxGeometry x="606" y="135" width="140" height="104" as="geometry" />
        </mxCell>
        <mxCell id="T1cV6wa7lcxZvdlWrsby-16" value="userId {PK}" style="text;strokeColor=none;fillColor=none;align=left;verticalAlign=top;spacingLeft=4;spacingRight=4;overflow=hidden;rotatable=0;points=[[0,0.5],[1,0.5]];portConstraint=eastwest;" parent="T1cV6wa7lcxZvdlWrsby-15" vertex="1">
          <mxGeometry y="26" width="140" height="26" as="geometry" />
        </mxCell>
        <mxCell id="T1cV6wa7lcxZvdlWrsby-17" value="name" style="text;strokeColor=none;fillColor=none;align=left;verticalAlign=top;spacingLeft=4;spacingRight=4;overflow=hidden;rotatable=0;points=[[0,0.5],[1,0.5]];portConstraint=eastwest;" parent="T1cV6wa7lcxZvdlWrsby-15" vertex="1">
          <mxGeometry y="52" width="140" height="26" as="geometry" />
        </mxCell>
        <mxCell id="T1cV6wa7lcxZvdlWrsby-18" value="surname" style="text;strokeColor=none;fillColor=none;align=left;verticalAlign=top;spacingLeft=4;spacingRight=4;overflow=hidden;rotatable=0;points=[[0,0.5],[1,0.5]];portConstraint=eastwest;" parent="T1cV6wa7lcxZvdlWrsby-15" vertex="1">
          <mxGeometry y="78" width="140" height="26" as="geometry" />
        </mxCell>
        <mxCell id="T1cV6wa7lcxZvdlWrsby-30" value="Country" style="swimlane;fontStyle=0;childLayout=stackLayout;horizontal=1;startSize=26;fillColor=none;horizontalStack=0;resizeParent=1;resizeParentMax=0;resizeLast=0;collapsible=1;marginBottom=0;" parent="1" vertex="1">
          <mxGeometry x="58.5" y="310" width="140" height="78" as="geometry" />
        </mxCell>
        <mxCell id="T1cV6wa7lcxZvdlWrsby-31" value="countryId {PK}" style="text;strokeColor=none;fillColor=none;align=left;verticalAlign=top;spacingLeft=4;spacingRight=4;overflow=hidden;rotatable=0;points=[[0,0.5],[1,0.5]];portConstraint=eastwest;" parent="T1cV6wa7lcxZvdlWrsby-30" vertex="1">
          <mxGeometry y="26" width="140" height="26" as="geometry" />
        </mxCell>
        <mxCell id="T1cV6wa7lcxZvdlWrsby-32" value="name" style="text;strokeColor=none;fillColor=none;align=left;verticalAlign=top;spacingLeft=4;spacingRight=4;overflow=hidden;rotatable=0;points=[[0,0.5],[1,0.5]];portConstraint=eastwest;" parent="T1cV6wa7lcxZvdlWrsby-30" vertex="1">
          <mxGeometry y="52" width="140" height="26" as="geometry" />
        </mxCell>
        <mxCell id="T1cV6wa7lcxZvdlWrsby-34" value="" style="endArrow=none;html=1;rounded=0;entryX=0.5;entryY=0;entryDx=0;entryDy=0;exitX=0.5;exitY=1.038;exitDx=0;exitDy=0;exitPerimeter=0;" parent="1" target="T1cV6wa7lcxZvdlWrsby-30" edge="1">
          <mxGeometry relative="1" as="geometry">
            <mxPoint x="128.5" y="190.98800000000006" as="sourcePoint" />
            <mxPoint x="580" y="370" as="targetPoint" />
          </mxGeometry>
        </mxCell>
        <mxCell id="T1cV6wa7lcxZvdlWrsby-41" value="" style="html=1;shadow=0;dashed=0;align=center;verticalAlign=middle;shape=mxgraph.arrows2.arrow;dy=0.6;dx=40;notch=0;rotation=90;" parent="1" vertex="1">
          <mxGeometry x="108.5" y="267.5" width="17" height="15" as="geometry" />
        </mxCell>
        <mxCell id="T1cV6wa7lcxZvdlWrsby-44" value="has" style="text;html=1;align=center;verticalAlign=middle;resizable=0;points=[];;autosize=1;" parent="1" vertex="1">
          <mxGeometry x="91" y="241.5" width="39" height="26" as="geometry" />
        </mxCell>
        <mxCell id="T1cV6wa7lcxZvdlWrsby-45" value="1... *" style="text;html=1;align=center;verticalAlign=middle;resizable=0;points=[];;autosize=1;" parent="1" vertex="1">
          <mxGeometry x="129" y="287" width="42" height="26" as="geometry" />
        </mxCell>
        <mxCell id="T1cV6wa7lcxZvdlWrsby-46" value="1...1" style="text;html=1;align=center;verticalAlign=middle;resizable=0;points=[];;autosize=1;" parent="1" vertex="1">
          <mxGeometry x="127" y="192" width="41" height="26" as="geometry" />
        </mxCell>
        <mxCell id="T1cV6wa7lcxZvdlWrsby-67" value="City" style="swimlane;fontStyle=0;childLayout=stackLayout;horizontal=1;startSize=26;fillColor=none;horizontalStack=0;resizeParent=1;resizeParentMax=0;resizeLast=0;collapsible=1;marginBottom=0;" parent="1" vertex="1">
          <mxGeometry x="370.5" y="310" width="140" height="78" as="geometry" />
        </mxCell>
        <mxCell id="T1cV6wa7lcxZvdlWrsby-68" value="cityId {PK}" style="text;strokeColor=none;fillColor=none;align=left;verticalAlign=top;spacingLeft=4;spacingRight=4;overflow=hidden;rotatable=0;points=[[0,0.5],[1,0.5]];portConstraint=eastwest;" parent="T1cV6wa7lcxZvdlWrsby-67" vertex="1">
          <mxGeometry y="26" width="140" height="26" as="geometry" />
        </mxCell>
        <mxCell id="T1cV6wa7lcxZvdlWrsby-69" value="name" style="text;strokeColor=none;fillColor=none;align=left;verticalAlign=top;spacingLeft=4;spacingRight=4;overflow=hidden;rotatable=0;points=[[0,0.5],[1,0.5]];portConstraint=eastwest;" parent="T1cV6wa7lcxZvdlWrsby-67" vertex="1">
          <mxGeometry y="52" width="140" height="26" as="geometry" />
        </mxCell>
        <mxCell id="T1cV6wa7lcxZvdlWrsby-71" value="" style="endArrow=none;html=1;rounded=0;entryX=0;entryY=0.5;entryDx=0;entryDy=0;exitX=1;exitY=0.5;exitDx=0;exitDy=0;" parent="1" edge="1">
          <mxGeometry relative="1" as="geometry">
            <mxPoint x="198.5" y="351.5" as="sourcePoint" />
            <mxPoint x="370.5" y="351.5" as="targetPoint" />
          </mxGeometry>
        </mxCell>
        <mxCell id="T1cV6wa7lcxZvdlWrsby-72" value="has" style="text;html=1;align=center;verticalAlign=middle;resizable=0;points=[];;autosize=1;" parent="1" vertex="1">
          <mxGeometry x="265" y="325.5" width="39" height="26" as="geometry" />
        </mxCell>
        <mxCell id="T1cV6wa7lcxZvdlWrsby-73" value="1...1" style="text;html=1;align=center;verticalAlign=middle;resizable=0;points=[];;autosize=1;" parent="1" vertex="1">
          <mxGeometry x="198.5" y="348" width="41" height="26" as="geometry" />
        </mxCell>
        <mxCell id="T1cV6wa7lcxZvdlWrsby-75" value="1...*" style="text;html=1;align=center;verticalAlign=middle;resizable=0;points=[];;autosize=1;" parent="1" vertex="1">
          <mxGeometry x="331" y="351.5" width="39" height="26" as="geometry" />
        </mxCell>
        <mxCell id="T1cV6wa7lcxZvdlWrsby-78" value="Hotel" style="swimlane;fontStyle=0;childLayout=stackLayout;horizontal=1;startSize=26;fillColor=none;horizontalStack=0;resizeParent=1;resizeParentMax=0;resizeLast=0;collapsible=1;marginBottom=0;" parent="1" vertex="1">
          <mxGeometry x="370.5" y="495" width="140" height="104" as="geometry" />
        </mxCell>
        <mxCell id="T1cV6wa7lcxZvdlWrsby-79" value="hotelId {PK}" style="text;strokeColor=none;fillColor=none;align=left;verticalAlign=top;spacingLeft=4;spacingRight=4;overflow=hidden;rotatable=0;points=[[0,0.5],[1,0.5]];portConstraint=eastwest;" parent="T1cV6wa7lcxZvdlWrsby-78" vertex="1">
          <mxGeometry y="26" width="140" height="26" as="geometry" />
        </mxCell>
        <mxCell id="T1cV6wa7lcxZvdlWrsby-80" value="name" style="text;strokeColor=none;fillColor=none;align=left;verticalAlign=top;spacingLeft=4;spacingRight=4;overflow=hidden;rotatable=0;points=[[0,0.5],[1,0.5]];portConstraint=eastwest;" parent="T1cV6wa7lcxZvdlWrsby-78" vertex="1">
          <mxGeometry y="52" width="140" height="26" as="geometry" />
        </mxCell>
        <mxCell id="T1cV6wa7lcxZvdlWrsby-81" value="stars" style="text;strokeColor=none;fillColor=none;align=left;verticalAlign=top;spacingLeft=4;spacingRight=4;overflow=hidden;rotatable=0;points=[[0,0.5],[1,0.5]];portConstraint=eastwest;" parent="T1cV6wa7lcxZvdlWrsby-78" vertex="1">
          <mxGeometry y="78" width="140" height="26" as="geometry" />
        </mxCell>
        <mxCell id="T1cV6wa7lcxZvdlWrsby-83" value="" style="endArrow=none;html=1;rounded=0;entryX=0.5;entryY=0;entryDx=0;entryDy=0;exitX=0.498;exitY=0.992;exitDx=0;exitDy=0;exitPerimeter=0;" parent="1" edge="1">
          <mxGeometry relative="1" as="geometry">
            <mxPoint x="441.22" y="388.0019999999999" as="sourcePoint" />
            <mxPoint x="441" y="494.21" as="targetPoint" />
          </mxGeometry>
        </mxCell>
        <mxCell id="T1cV6wa7lcxZvdlWrsby-84" value="has" style="text;html=1;align=center;verticalAlign=middle;resizable=0;points=[];;autosize=1;" parent="1" vertex="1">
          <mxGeometry x="399" y="433.71" width="39" height="26" as="geometry" />
        </mxCell>
        <mxCell id="T1cV6wa7lcxZvdlWrsby-88" value="1...1" style="text;html=1;align=center;verticalAlign=middle;resizable=0;points=[];;autosize=1;" parent="1" vertex="1">
          <mxGeometry x="441.5" y="385.21" width="41" height="26" as="geometry" />
        </mxCell>
        <mxCell id="T1cV6wa7lcxZvdlWrsby-89" value="0...*" style="text;html=1;align=center;verticalAlign=middle;resizable=0;points=[];;autosize=1;" parent="1" vertex="1">
          <mxGeometry x="439" y="471.21" width="39" height="26" as="geometry" />
        </mxCell>
        <mxCell id="T1cV6wa7lcxZvdlWrsby-131" value="Airport" style="swimlane;fontStyle=0;childLayout=stackLayout;horizontal=1;startSize=26;fillColor=none;horizontalStack=0;resizeParent=1;resizeParentMax=0;resizeLast=0;collapsible=1;marginBottom=0;" parent="1" vertex="1">
          <mxGeometry x="370.5" y="753.75" width="140" height="78" as="geometry" />
        </mxCell>
        <mxCell id="T1cV6wa7lcxZvdlWrsby-132" value="airportId {PK}" style="text;strokeColor=none;fillColor=none;align=left;verticalAlign=top;spacingLeft=4;spacingRight=4;overflow=hidden;rotatable=0;points=[[0,0.5],[1,0.5]];portConstraint=eastwest;" parent="T1cV6wa7lcxZvdlWrsby-131" vertex="1">
          <mxGeometry y="26" width="140" height="26" as="geometry" />
        </mxCell>
        <mxCell id="T1cV6wa7lcxZvdlWrsby-133" value="name" style="text;strokeColor=none;fillColor=none;align=left;verticalAlign=top;spacingLeft=4;spacingRight=4;overflow=hidden;rotatable=0;points=[[0,0.5],[1,0.5]];portConstraint=eastwest;" parent="T1cV6wa7lcxZvdlWrsby-131" vertex="1">
          <mxGeometry y="52" width="140" height="26" as="geometry" />
        </mxCell>
        <mxCell id="dFoveFlkhWk-UOPTvJZA-4" value="" style="html=1;shadow=0;dashed=0;align=center;verticalAlign=middle;shape=mxgraph.arrows2.arrow;dy=0.6;dx=40;notch=0;" parent="1" vertex="1">
          <mxGeometry x="311" y="331" width="17" height="15" as="geometry" />
        </mxCell>
        <mxCell id="dFoveFlkhWk-UOPTvJZA-5" value="" style="html=1;shadow=0;dashed=0;align=center;verticalAlign=middle;shape=mxgraph.arrows2.arrow;dy=0.6;dx=40;notch=0;rotation=90;" parent="1" vertex="1">
          <mxGeometry x="418" y="462.5" width="17" height="15" as="geometry" />
        </mxCell>
        <mxCell id="dFoveFlkhWk-UOPTvJZA-18" value="" style="endArrow=none;html=1;rounded=0;entryX=0.5;entryY=0;entryDx=0;entryDy=0;exitX=0.5;exitY=1.038;exitDx=0;exitDy=0;exitPerimeter=0;" parent="1" edge="1">
          <mxGeometry relative="1" as="geometry">
            <mxPoint x="679.5" y="239.74800000000005" as="sourcePoint" />
            <mxPoint x="679.5" y="358.76" as="targetPoint" />
          </mxGeometry>
        </mxCell>
        <mxCell id="dFoveFlkhWk-UOPTvJZA-19" value="" style="html=1;shadow=0;dashed=0;align=center;verticalAlign=middle;shape=mxgraph.arrows2.arrow;dy=0.6;dx=40;notch=0;rotation=90;" parent="1" vertex="1">
          <mxGeometry x="659.5" y="316.26" width="17" height="15" as="geometry" />
        </mxCell>
        <mxCell id="dFoveFlkhWk-UOPTvJZA-20" value="purchased" style="text;html=1;align=center;verticalAlign=middle;resizable=0;points=[];;autosize=1;" parent="1" vertex="1">
          <mxGeometry x="601" y="290.26" width="77" height="26" as="geometry" />
        </mxCell>
        <mxCell id="dFoveFlkhWk-UOPTvJZA-21" value="0...*" style="text;html=1;align=center;verticalAlign=middle;resizable=0;points=[];;autosize=1;" parent="1" vertex="1">
          <mxGeometry x="682" y="335.76" width="39" height="26" as="geometry" />
        </mxCell>
        <mxCell id="dFoveFlkhWk-UOPTvJZA-22" value="1...1" style="text;html=1;align=center;verticalAlign=middle;resizable=0;points=[];;autosize=1;" parent="1" vertex="1">
          <mxGeometry x="678" y="240.76" width="41" height="26" as="geometry" />
        </mxCell>
        <mxCell id="dFoveFlkhWk-UOPTvJZA-23" value="Trip purchase" style="swimlane;fontStyle=0;childLayout=stackLayout;horizontal=1;startSize=26;fillColor=none;horizontalStack=0;resizeParent=1;resizeParentMax=0;resizeLast=0;collapsible=1;marginBottom=0;" parent="1" vertex="1">
          <mxGeometry x="609.5" y="360.25" width="140" height="130" as="geometry" />
        </mxCell>
        <mxCell id="dFoveFlkhWk-UOPTvJZA-24" value="tripPurchaseId {PK}" style="text;strokeColor=none;fillColor=none;align=left;verticalAlign=top;spacingLeft=4;spacingRight=4;overflow=hidden;rotatable=0;points=[[0,0.5],[1,0.5]];portConstraint=eastwest;" parent="dFoveFlkhWk-UOPTvJZA-23" vertex="1">
          <mxGeometry y="26" width="140" height="26" as="geometry" />
        </mxCell>
        <mxCell id="dFoveFlkhWk-UOPTvJZA-25" value="childNumber" style="text;strokeColor=none;fillColor=none;align=left;verticalAlign=top;spacingLeft=4;spacingRight=4;overflow=hidden;rotatable=0;points=[[0,0.5],[1,0.5]];portConstraint=eastwest;" parent="dFoveFlkhWk-UOPTvJZA-23" vertex="1">
          <mxGeometry y="52" width="140" height="26" as="geometry" />
        </mxCell>
        <mxCell id="dFoveFlkhWk-UOPTvJZA-26" value="adultNumber" style="text;strokeColor=none;fillColor=none;align=left;verticalAlign=top;spacingLeft=4;spacingRight=4;overflow=hidden;rotatable=0;points=[[0,0.5],[1,0.5]];portConstraint=eastwest;" parent="dFoveFlkhWk-UOPTvJZA-23" vertex="1">
          <mxGeometry y="78" width="140" height="26" as="geometry" />
        </mxCell>
        <mxCell id="dFoveFlkhWk-UOPTvJZA-28" value="price" style="text;strokeColor=none;fillColor=none;align=left;verticalAlign=top;spacingLeft=4;spacingRight=4;overflow=hidden;rotatable=0;points=[[0,0.5],[1,0.5]];portConstraint=eastwest;" parent="dFoveFlkhWk-UOPTvJZA-23" vertex="1">
          <mxGeometry y="104" width="140" height="26" as="geometry" />
        </mxCell>
        <mxCell id="dFoveFlkhWk-UOPTvJZA-29" value="" style="endArrow=none;html=1;rounded=0;entryX=0.5;entryY=0;entryDx=0;entryDy=0;" parent="1" edge="1">
          <mxGeometry relative="1" as="geometry">
            <mxPoint x="682" y="490" as="sourcePoint" />
            <mxPoint x="681.5" y="635.26" as="targetPoint" />
          </mxGeometry>
        </mxCell>
        <mxCell id="dFoveFlkhWk-UOPTvJZA-30" value="" style="html=1;shadow=0;dashed=0;align=center;verticalAlign=middle;shape=mxgraph.arrows2.arrow;dy=0.6;dx=40;notch=0;rotation=90;" parent="1" vertex="1">
          <mxGeometry x="659.5" y="573" width="17" height="15" as="geometry" />
        </mxCell>
        <mxCell id="dFoveFlkhWk-UOPTvJZA-31" value="is related to" style="text;html=1;align=center;verticalAlign=middle;resizable=0;points=[];;autosize=1;" parent="1" vertex="1">
          <mxGeometry x="600" y="543" width="82" height="26" as="geometry" />
        </mxCell>
        <mxCell id="dFoveFlkhWk-UOPTvJZA-32" value="1...1" style="text;html=1;align=center;verticalAlign=middle;resizable=0;points=[];;autosize=1;" parent="1" vertex="1">
          <mxGeometry x="683" y="612.26" width="41" height="26" as="geometry" />
        </mxCell>
        <mxCell id="dFoveFlkhWk-UOPTvJZA-33" value="1...*" style="text;html=1;align=center;verticalAlign=middle;resizable=0;points=[];;autosize=1;" parent="1" vertex="1">
          <mxGeometry x="682" y="490.25" width="39" height="26" as="geometry" />
        </mxCell>
        <mxCell id="dFoveFlkhWk-UOPTvJZA-34" value="Trip" style="swimlane;fontStyle=0;childLayout=stackLayout;horizontal=1;startSize=26;fillColor=none;horizontalStack=0;resizeParent=1;resizeParentMax=0;resizeLast=0;collapsible=1;marginBottom=0;" parent="1" vertex="1">
          <mxGeometry x="611.5" y="636.75" width="140" height="416" as="geometry" />
        </mxCell>
        <mxCell id="dFoveFlkhWk-UOPTvJZA-35" value="tripId {PK}" style="text;strokeColor=none;fillColor=none;align=left;verticalAlign=top;spacingLeft=4;spacingRight=4;overflow=hidden;rotatable=0;points=[[0,0.5],[1,0.5]];portConstraint=eastwest;" parent="dFoveFlkhWk-UOPTvJZA-34" vertex="1">
          <mxGeometry y="26" width="140" height="26" as="geometry" />
        </mxCell>
        <mxCell id="Mg6ZvmJwkHKzIjie8zum-4" value="description" style="text;strokeColor=none;fillColor=none;align=left;verticalAlign=top;spacingLeft=4;spacingRight=4;overflow=hidden;rotatable=0;points=[[0,0.5],[1,0.5]];portConstraint=eastwest;" parent="dFoveFlkhWk-UOPTvJZA-34" vertex="1">
          <mxGeometry y="52" width="140" height="26" as="geometry" />
        </mxCell>
        <mxCell id="dFoveFlkhWk-UOPTvJZA-36" value="imageData" style="text;strokeColor=none;fillColor=none;align=left;verticalAlign=top;spacingLeft=4;spacingRight=4;overflow=hidden;rotatable=0;points=[[0,0.5],[1,0.5]];portConstraint=eastwest;" parent="dFoveFlkhWk-UOPTvJZA-34" vertex="1">
          <mxGeometry y="78" width="140" height="26" as="geometry" />
        </mxCell>
        <mxCell id="Mg6ZvmJwkHKzIjie8zum-3" value="fromAirport" style="text;strokeColor=none;fillColor=none;align=left;verticalAlign=top;spacingLeft=4;spacingRight=4;overflow=hidden;rotatable=0;points=[[0,0.5],[1,0.5]];portConstraint=eastwest;" parent="dFoveFlkhWk-UOPTvJZA-34" vertex="1">
          <mxGeometry y="104" width="140" height="26" as="geometry" />
        </mxCell>
        <mxCell id="dFoveFlkhWk-UOPTvJZA-37" value="toAirport" style="text;strokeColor=none;fillColor=none;align=left;verticalAlign=top;spacingLeft=4;spacingRight=4;overflow=hidden;rotatable=0;points=[[0,0.5],[1,0.5]];portConstraint=eastwest;" parent="dFoveFlkhWk-UOPTvJZA-34" vertex="1">
          <mxGeometry y="130" width="140" height="26" as="geometry" />
        </mxCell>
        <mxCell id="dFoveFlkhWk-UOPTvJZA-38" value="hotel" style="text;strokeColor=none;fillColor=none;align=left;verticalAlign=top;spacingLeft=4;spacingRight=4;overflow=hidden;rotatable=0;points=[[0,0.5],[1,0.5]];portConstraint=eastwest;" parent="dFoveFlkhWk-UOPTvJZA-34" vertex="1">
          <mxGeometry y="156" width="140" height="26" as="geometry" />
        </mxCell>
        <mxCell id="dFoveFlkhWk-UOPTvJZA-39" value="departureDate" style="text;strokeColor=none;fillColor=none;align=left;verticalAlign=top;spacingLeft=4;spacingRight=4;overflow=hidden;rotatable=0;points=[[0,0.5],[1,0.5]];portConstraint=eastwest;" parent="dFoveFlkhWk-UOPTvJZA-34" vertex="1">
          <mxGeometry y="182" width="140" height="26" as="geometry" />
        </mxCell>
        <mxCell id="dFoveFlkhWk-UOPTvJZA-40" value="arrivalDate" style="text;strokeColor=none;fillColor=none;align=left;verticalAlign=top;spacingLeft=4;spacingRight=4;overflow=hidden;rotatable=0;points=[[0,0.5],[1,0.5]];portConstraint=eastwest;" parent="dFoveFlkhWk-UOPTvJZA-34" vertex="1">
          <mxGeometry y="208" width="140" height="26" as="geometry" />
        </mxCell>
        <mxCell id="dFoveFlkhWk-UOPTvJZA-41" value="daysDuration" style="text;strokeColor=none;fillColor=none;align=left;verticalAlign=top;spacingLeft=4;spacingRight=4;overflow=hidden;rotatable=0;points=[[0,0.5],[1,0.5]];portConstraint=eastwest;" parent="dFoveFlkhWk-UOPTvJZA-34" vertex="1">
          <mxGeometry y="234" width="140" height="26" as="geometry" />
        </mxCell>
        <mxCell id="dFoveFlkhWk-UOPTvJZA-42" value="priceForAdult" style="text;strokeColor=none;fillColor=none;align=left;verticalAlign=top;spacingLeft=4;spacingRight=4;overflow=hidden;rotatable=0;points=[[0,0.5],[1,0.5]];portConstraint=eastwest;" parent="dFoveFlkhWk-UOPTvJZA-34" vertex="1">
          <mxGeometry y="260" width="140" height="26" as="geometry" />
        </mxCell>
        <mxCell id="dFoveFlkhWk-UOPTvJZA-43" value="priceForChild" style="text;strokeColor=none;fillColor=none;align=left;verticalAlign=top;spacingLeft=4;spacingRight=4;overflow=hidden;rotatable=0;points=[[0,0.5],[1,0.5]];portConstraint=eastwest;" parent="dFoveFlkhWk-UOPTvJZA-34" vertex="1">
          <mxGeometry y="286" width="140" height="26" as="geometry" />
        </mxCell>
        <mxCell id="dFoveFlkhWk-UOPTvJZA-44" value="isLastMinute" style="text;strokeColor=none;fillColor=none;align=left;verticalAlign=top;spacingLeft=4;spacingRight=4;overflow=hidden;rotatable=0;points=[[0,0.5],[1,0.5]];portConstraint=eastwest;" parent="dFoveFlkhWk-UOPTvJZA-34" vertex="1">
          <mxGeometry y="312" width="140" height="26" as="geometry" />
        </mxCell>
        <mxCell id="sUR8qwE6dFAIdVELX2ea-1" value="isFirstMinute" style="text;strokeColor=none;fillColor=none;align=left;verticalAlign=top;spacingLeft=4;spacingRight=4;overflow=hidden;rotatable=0;points=[[0,0.5],[1,0.5]];portConstraint=eastwest;" vertex="1" parent="dFoveFlkhWk-UOPTvJZA-34">
          <mxGeometry y="338" width="140" height="26" as="geometry" />
        </mxCell>
        <mxCell id="Mg6ZvmJwkHKzIjie8zum-5" value="numberOfBooking" style="text;strokeColor=none;fillColor=none;align=left;verticalAlign=top;spacingLeft=4;spacingRight=4;overflow=hidden;rotatable=0;points=[[0,0.5],[1,0.5]];portConstraint=eastwest;" parent="dFoveFlkhWk-UOPTvJZA-34" vertex="1">
          <mxGeometry y="364" width="140" height="26" as="geometry" />
        </mxCell>
        <mxCell id="dFoveFlkhWk-UOPTvJZA-45" value="isPublic" style="text;strokeColor=none;fillColor=none;align=left;verticalAlign=top;spacingLeft=4;spacingRight=4;overflow=hidden;rotatable=0;points=[[0,0.5],[1,0.5]];portConstraint=eastwest;" parent="dFoveFlkhWk-UOPTvJZA-34" vertex="1">
          <mxGeometry y="390" width="140" height="26" as="geometry" />
        </mxCell>
        <mxCell id="dFoveFlkhWk-UOPTvJZA-49" value="" style="endArrow=none;html=1;rounded=0;exitX=1;exitY=0.5;exitDx=0;exitDy=0;" parent="1" edge="1">
          <mxGeometry relative="1" as="geometry">
            <mxPoint x="510.5" y="360.25" as="sourcePoint" />
            <mxPoint x="560.5" y="360.25" as="targetPoint" />
          </mxGeometry>
        </mxCell>
        <mxCell id="dFoveFlkhWk-UOPTvJZA-51" value="" style="endArrow=none;html=1;rounded=0;" parent="1" edge="1">
          <mxGeometry width="50" height="50" relative="1" as="geometry">
            <mxPoint x="560" y="693" as="sourcePoint" />
            <mxPoint x="560" y="360" as="targetPoint" />
          </mxGeometry>
        </mxCell>
        <mxCell id="dFoveFlkhWk-UOPTvJZA-52" value="" style="endArrow=none;html=1;rounded=0;" parent="1" edge="1">
          <mxGeometry relative="1" as="geometry">
            <mxPoint x="441" y="693" as="sourcePoint" />
            <mxPoint x="560.5" y="693" as="targetPoint" />
          </mxGeometry>
        </mxCell>
        <mxCell id="dFoveFlkhWk-UOPTvJZA-53" value="" style="html=1;shadow=0;dashed=0;align=center;verticalAlign=middle;shape=mxgraph.arrows2.arrow;dy=0.6;dx=40;notch=0;rotation=90;" parent="1" vertex="1">
          <mxGeometry x="540" y="456.21" width="17" height="15" as="geometry" />
        </mxCell>
        <mxCell id="dFoveFlkhWk-UOPTvJZA-54" value="has" style="text;html=1;align=center;verticalAlign=middle;resizable=0;points=[];;autosize=1;" parent="1" vertex="1">
          <mxGeometry x="518" y="428" width="39" height="26" as="geometry" />
        </mxCell>
        <mxCell id="dFoveFlkhWk-UOPTvJZA-55" value="1...1" style="text;html=1;align=center;verticalAlign=middle;resizable=0;points=[];;autosize=1;" parent="1" vertex="1">
          <mxGeometry x="510.5" y="336" width="41" height="26" as="geometry" />
        </mxCell>
        <mxCell id="dFoveFlkhWk-UOPTvJZA-56" value="0...*" style="text;html=1;align=center;verticalAlign=middle;resizable=0;points=[];;autosize=1;" parent="1" vertex="1">
          <mxGeometry x="400" y="727.75" width="39" height="26" as="geometry" />
        </mxCell>
        <mxCell id="dFoveFlkhWk-UOPTvJZA-57" value="" style="endArrow=none;html=1;rounded=0;entryX=0.5;entryY=0;entryDx=0;entryDy=0;" parent="1" target="T1cV6wa7lcxZvdlWrsby-131" edge="1">
          <mxGeometry relative="1" as="geometry">
            <mxPoint x="441" y="693" as="sourcePoint" />
            <mxPoint x="428" y="732" as="targetPoint" />
          </mxGeometry>
        </mxCell>
        <mxCell id="dFoveFlkhWk-UOPTvJZA-58" value="" style="endArrow=none;html=1;rounded=0;" parent="1" edge="1">
          <mxGeometry relative="1" as="geometry">
            <mxPoint x="440.58" y="599" as="sourcePoint" />
            <mxPoint x="440" y="637" as="targetPoint" />
          </mxGeometry>
        </mxCell>
        <mxCell id="dFoveFlkhWk-UOPTvJZA-59" value="" style="endArrow=none;html=1;rounded=0;" parent="1" edge="1">
          <mxGeometry relative="1" as="geometry">
            <mxPoint x="324" y="637" as="sourcePoint" />
            <mxPoint x="440" y="637" as="targetPoint" />
          </mxGeometry>
        </mxCell>
        <mxCell id="dFoveFlkhWk-UOPTvJZA-60" value="" style="endArrow=none;html=1;rounded=0;" parent="1" edge="1">
          <mxGeometry width="50" height="50" relative="1" as="geometry">
            <mxPoint x="324" y="894" as="sourcePoint" />
            <mxPoint x="324" y="637" as="targetPoint" />
          </mxGeometry>
        </mxCell>
        <mxCell id="dFoveFlkhWk-UOPTvJZA-61" value="" style="endArrow=none;html=1;rounded=0;" parent="1" edge="1">
          <mxGeometry relative="1" as="geometry">
            <mxPoint x="324" y="894" as="sourcePoint" />
            <mxPoint x="611" y="894" as="targetPoint" />
          </mxGeometry>
        </mxCell>
        <mxCell id="dFoveFlkhWk-UOPTvJZA-62" value="" style="endArrow=none;html=1;rounded=0;entryX=0.987;entryY=0.048;entryDx=0;entryDy=0;entryPerimeter=0;" parent="1" target="dFoveFlkhWk-UOPTvJZA-65" edge="1">
          <mxGeometry relative="1" as="geometry">
            <mxPoint x="510.5" y="806" as="sourcePoint" />
            <mxPoint x="630" y="806" as="targetPoint" />
          </mxGeometry>
        </mxCell>
        <mxCell id="dFoveFlkhWk-UOPTvJZA-63" value="1...1" style="text;html=1;align=center;verticalAlign=middle;resizable=0;points=[];;autosize=1;" parent="1" vertex="1">
          <mxGeometry x="441.5" y="601" width="41" height="26" as="geometry" />
        </mxCell>
        <mxCell id="dFoveFlkhWk-UOPTvJZA-64" value="0...*" style="text;html=1;align=center;verticalAlign=middle;resizable=0;points=[];;autosize=1;" parent="1" vertex="1">
          <mxGeometry x="572.5" y="869" width="39" height="26" as="geometry" />
        </mxCell>
        <mxCell id="dFoveFlkhWk-UOPTvJZA-65" value="0...*" style="text;html=1;align=center;verticalAlign=middle;resizable=0;points=[];;autosize=1;" parent="1" vertex="1">
          <mxGeometry x="572.5" y="805.75" width="39" height="26" as="geometry" />
        </mxCell>
        <mxCell id="dFoveFlkhWk-UOPTvJZA-66" value="1...*" style="text;html=1;align=center;verticalAlign=middle;resizable=0;points=[];;autosize=1;" parent="1" vertex="1">
          <mxGeometry x="511.5" y="805.75" width="39" height="26" as="geometry" />
        </mxCell>
        <mxCell id="dFoveFlkhWk-UOPTvJZA-67" value="" style="html=1;shadow=0;dashed=0;align=center;verticalAlign=middle;shape=mxgraph.arrows2.arrow;dy=0.6;dx=40;notch=0;rotation=-180;" parent="1" vertex="1">
          <mxGeometry x="534.5" y="785.25" width="17" height="15" as="geometry" />
        </mxCell>
        <mxCell id="dFoveFlkhWk-UOPTvJZA-68" value="has" style="text;html=1;align=center;verticalAlign=middle;resizable=0;points=[];;autosize=1;" parent="1" vertex="1">
          <mxGeometry x="551.5" y="779.75" width="39" height="26" as="geometry" />
        </mxCell>
        <mxCell id="dFoveFlkhWk-UOPTvJZA-69" value="" style="html=1;shadow=0;dashed=0;align=center;verticalAlign=middle;shape=mxgraph.arrows2.arrow;dy=0.6;dx=40;notch=0;rotation=-180;" parent="1" vertex="1">
          <mxGeometry x="428" y="874.5" width="17" height="15" as="geometry" />
        </mxCell>
        <mxCell id="dFoveFlkhWk-UOPTvJZA-70" value="has" style="text;html=1;align=center;verticalAlign=middle;resizable=0;points=[];;autosize=1;" parent="1" vertex="1">
          <mxGeometry x="445" y="867" width="39" height="26" as="geometry" />
        </mxCell>
      </root>
    </mxGraphModel>
  </diagram>
</mxfile>
